<svg width="341" height="315" viewBox="0 0 341 315" fill="none" xmlns="http://www.w3.org/2000/svg">
<g clip-path="url(#clip0)">
<path d="M156.579 173.309C156.518 173.309 156.479 173.308 156.466 173.307L149.175 173.308V172.23H156.492C156.662 172.236 160.118 172.334 163.303 168.458C168.049 162.682 171.947 148.384 163.562 113.066C152.287 65.5775 161.691 23.6237 166.257 7.79033C166.482 7.00699 166.522 6.18191 166.375 5.38029C166.227 4.57867 165.896 3.82247 165.406 3.17143C164.917 2.5204 164.284 1.99237 163.556 1.62907C162.828 1.26577 162.026 1.07716 161.214 1.07812H52.3239C51.496 1.07924 50.6801 1.27609 49.9423 1.6527C49.2045 2.02931 48.5656 2.57508 48.0776 3.24569C46.1432 5.91415 43.4887 11.0405 41.8275 20.3098L40.7695 20.1192C42.4666 10.6486 45.2075 5.3714 47.208 2.61188C47.7959 1.80382 48.5656 1.14618 49.4545 0.692369C50.3433 0.238553 51.3264 0.0013427 52.3238 2.93358e-06H161.214C162.193 -0.000942328 163.159 0.226562 164.036 0.664542C164.913 1.10252 165.676 1.73898 166.266 2.52363C166.855 3.30827 167.254 4.21962 167.432 5.18565C167.61 6.15168 167.561 7.14594 167.29 8.08987C162.747 23.8411 153.392 65.5772 164.608 112.817C173.111 148.631 169.023 163.239 164.097 169.187C160.848 173.111 157.268 173.309 156.579 173.309Z" fill="#E6E6E6"/>
<path d="M136.959 192.985C136.898 192.985 136.859 192.984 136.846 192.983L129.555 192.984V191.905H136.872C137.043 191.911 140.498 192.009 143.683 188.134C148.429 182.358 152.327 168.059 143.942 132.742C132.667 85.2533 142.071 43.2994 146.637 27.4661C146.862 26.6828 146.902 25.8577 146.755 25.0561C146.607 24.2544 146.275 23.4983 145.786 22.8472C145.297 22.1962 144.664 21.6682 143.936 21.3049C143.208 20.9416 142.406 20.7529 141.593 20.7539H32.7038C31.8759 20.755 31.06 20.9519 30.3222 21.3285C29.5844 21.7051 28.9456 22.2509 28.4575 22.9215C26.5232 25.5899 23.8686 30.7163 22.2075 39.9856L21.1494 39.795C22.8466 30.3243 25.5875 25.0472 27.588 22.2877C28.1759 21.4796 28.9455 20.822 29.8344 20.3682C30.7233 19.9143 31.7064 19.6771 32.7038 19.6758H141.593C142.573 19.6748 143.539 19.9023 144.416 20.3403C145.293 20.7783 146.056 21.4148 146.646 22.1994C147.235 22.9841 147.634 23.8954 147.812 24.8614C147.99 25.8275 147.941 26.8217 147.67 27.7657C143.127 43.5169 133.772 85.253 144.988 132.493C153.491 168.307 149.403 182.915 144.477 188.863C141.228 192.786 137.647 192.985 136.959 192.985Z" fill="#CCCCCC"/>
<path d="M117.339 212.661C117.278 212.661 117.24 212.659 117.226 212.659L10.0149 212.659C8.98274 212.661 7.96598 212.408 7.05362 211.924C6.14125 211.44 5.3611 210.739 4.78145 209.882C4.20179 209.026 3.8403 208.04 3.72859 207.011C3.61688 205.982 3.75837 204.941 4.14067 203.979C8.03066 194.233 13.2683 170.849 4.64139 123.746C-5.54549 68.1255 3.57448 48.0242 7.96832 41.9634C8.55625 41.1554 9.32591 40.4977 10.2148 40.0439C11.1037 39.5901 12.0868 39.3529 13.0843 39.3516H121.974C122.953 39.3506 123.92 39.5781 124.797 40.0161C125.673 40.4541 126.437 41.0905 127.026 41.8752C127.615 42.6598 128.015 43.5712 128.192 44.5372C128.37 45.5032 128.322 46.4975 128.05 47.4414C123.508 63.1926 114.153 104.929 125.368 152.168C133.871 187.982 129.784 202.591 124.857 208.539C121.608 212.462 118.028 212.661 117.339 212.661ZM13.0843 40.4297C12.2564 40.4308 11.4404 40.6276 10.7026 41.0043C9.96481 41.3809 9.32594 41.9266 8.83786 42.5973C4.52551 48.5456 -4.41296 68.3413 5.69871 123.551C13.94 168.548 9.94302 192.343 5.13868 204.38C4.81489 205.174 4.69335 206.037 4.78504 206.89C4.87673 207.743 5.17875 208.559 5.66387 209.266C6.14489 209.98 6.79314 210.564 7.55176 210.967C8.31037 211.371 9.15617 211.582 10.0149 211.581H117.253C117.422 211.589 120.879 211.685 124.064 207.81C128.81 202.034 132.707 187.735 124.322 152.418C113.048 104.929 122.451 62.9752 127.017 47.1419C127.242 46.3585 127.283 45.5335 127.135 44.7318C126.987 43.9302 126.656 43.174 126.167 42.523C125.677 41.872 125.044 41.3439 124.316 40.9806C123.589 40.6173 122.787 40.4287 121.974 40.4297H13.0843Z" fill="#3F3D56"/>
<path d="M103.452 87.8672H17.9858C16.8453 87.8672 15.7515 87.4128 14.945 86.6041C14.1386 85.7953 13.6855 84.6984 13.6855 83.5547C13.6855 82.4109 14.1386 81.314 14.945 80.5053C15.7515 79.6965 16.8453 79.2422 17.9858 79.2422H103.452C104.593 79.2422 105.687 79.6965 106.493 80.5053C107.3 81.314 107.753 82.4109 107.753 83.5547C107.753 84.6984 107.3 85.7953 106.493 86.6041C105.687 87.4128 104.593 87.8672 103.452 87.8672Z" fill="#FFD62E"/>
<path d="M103.452 106.195H17.9858C16.8453 106.195 15.7515 105.741 14.945 104.932C14.1386 104.123 13.6855 103.027 13.6855 101.883C13.6855 100.739 14.1386 99.6422 14.945 98.8334C15.7515 98.0247 16.8453 97.5703 17.9858 97.5703H103.452C104.593 97.5703 105.687 98.0247 106.493 98.8334C107.3 99.6422 107.753 100.739 107.753 101.883C107.753 103.027 107.3 104.123 106.493 104.932C105.687 105.741 104.593 106.195 103.452 106.195Z" fill="#CCCCCC"/>
<path d="M103.452 124.523H17.9858C16.8453 124.523 15.7515 124.069 14.945 123.26C14.1386 122.452 13.6855 121.355 13.6855 120.211C13.6855 119.067 14.1386 117.97 14.945 117.162C15.7515 116.353 16.8453 115.898 17.9858 115.898H103.452C104.593 115.898 105.687 116.353 106.493 117.162C107.3 117.97 107.753 119.067 107.753 120.211C107.753 121.355 107.3 122.452 106.493 123.26C105.687 124.069 104.593 124.523 103.452 124.523Z" fill="#CCCCCC"/>
<path d="M109.904 142.852H24.4369C23.2964 142.852 22.2027 142.397 21.3962 141.588C20.5898 140.78 20.1367 139.683 20.1367 138.539C20.1367 137.395 20.5898 136.298 21.3962 135.49C22.2027 134.681 23.2964 134.227 24.4369 134.227H109.904C111.044 134.227 112.138 134.681 112.944 135.49C113.751 136.298 114.204 137.395 114.204 138.539C114.204 139.683 113.751 140.78 112.944 141.588C112.138 142.397 111.044 142.852 109.904 142.852Z" fill="#CCCCCC"/>
<path d="M109.904 161.18H24.4369C23.2964 161.18 22.2027 160.725 21.3962 159.917C20.5898 159.108 20.1367 158.011 20.1367 156.867C20.1367 155.723 20.5898 154.627 21.3962 153.818C22.2027 153.009 23.2964 152.555 24.4369 152.555H109.904C111.044 152.555 112.138 153.009 112.944 153.818C113.751 154.627 114.204 155.723 114.204 156.867C114.204 158.011 113.751 159.108 112.944 159.917C112.138 160.725 111.044 161.18 109.904 161.18Z" fill="#CCCCCC"/>
<path d="M58.3002 69.539H17.9858C16.8453 69.539 15.7515 69.0847 14.945 68.2759C14.1386 67.4672 13.6855 66.3703 13.6855 65.2265C13.6855 64.0828 14.1386 62.9859 14.945 62.1772C15.7515 61.3684 16.8453 60.9141 17.9858 60.9141H58.3002C59.4407 60.9141 60.5345 61.3684 61.341 62.1772C62.1474 62.9859 62.6005 64.0828 62.6005 65.2265C62.6005 66.3703 62.1474 67.4672 61.341 68.2759C60.5345 69.0847 59.4407 69.539 58.3002 69.539Z" fill="#FFD62E"/>
<path d="M53.0953 190.731C53.963 187.047 58.0395 185.839 61.3723 185.974C63.4781 186.117 65.5668 186.448 67.6135 186.965C69.7551 187.445 71.8758 188.014 73.9858 188.617C77.8552 189.724 81.6847 191.062 85.6178 191.928C88.8921 192.648 92.4504 193.07 95.7157 192.076C98.8545 191.12 101.517 188.773 102.371 185.529C103.176 182.472 102.071 179.129 99.1172 177.732C96.4232 176.458 93.0203 177.106 91.6851 179.987C90.1796 183.236 91.6838 186.779 94.0676 189.13C95.4225 190.406 96.9066 191.536 98.4957 192.503C100.109 193.605 101.904 194.411 103.798 194.884C106.907 195.55 110.611 194.569 112.215 191.589C112.572 190.915 112.786 190.174 112.845 189.413C112.94 188.377 111.327 188.384 111.232 189.413C110.961 192.38 107.496 193.769 104.906 193.444C103.157 193.153 101.487 192.503 100 191.535C98.5659 190.696 97.2066 189.734 95.9377 188.66C93.7404 186.753 91.6806 183.615 93.1564 180.639C94.3581 178.216 97.4906 178.24 99.3959 179.803C101.703 181.695 101.292 185.13 99.77 187.378C98.0849 189.866 95.0307 190.909 92.1511 191.022C89.0221 191.144 85.9193 190.424 82.9289 189.572C79.2132 188.514 75.5345 187.33 71.8009 186.334C69.6813 185.768 67.5454 185.258 65.3876 184.861C63.3472 184.41 61.2515 184.264 59.1686 184.429C55.8038 184.818 52.3689 186.783 51.5404 190.301C51.3021 191.313 52.8566 191.745 53.0954 190.731L53.0953 190.731Z" fill="#3F3D56"/>
<path d="M217.847 282.166C217.94 292.781 218.715 303.378 220.168 313.892C220.219 314.262 220.274 314.631 220.326 315L319.447 314.445C319.738 314.078 320.024 313.707 320.302 313.331C321.227 312.088 322.094 310.81 322.891 309.488C326.718 303.118 328.47 295.66 326.714 290.514L326.682 290.434C326.303 289.307 325.706 288.266 324.925 287.372C320.922 282.853 312.829 283.606 305.484 287.254C312.072 280.022 317.317 270.897 317.716 262.752C318.107 254.807 313.964 249.131 309.471 244.308C309.324 244.149 309.176 243.994 309.029 243.839C308.957 243.759 308.882 243.684 308.81 243.604C305.305 239.928 301.218 236.305 295.303 236.743C288.815 237.225 281.622 242.675 276.579 249.025C271.535 255.371 268.184 262.58 264.787 269.615C261.385 276.646 257.705 283.857 252.247 289.867C259.64 280.489 265.6 269.82 267.802 259.443C270.004 249.066 268.066 239.1 261.478 234.213C259.477 232.775 257.163 231.838 254.728 231.481C254.443 231.434 254.155 231.395 253.861 231.361C247.762 230.665 240.48 232.781 234.284 237.838C227.46 243.405 222.73 251.66 220.376 259.495C218.022 267.331 217.771 274.874 217.847 282.166Z" fill="#F2F2F2"/>
<path d="M282.697 314.65L284.593 314.64C285.194 314.262 285.799 313.889 286.407 313.521C286.783 313.283 287.163 313.054 287.544 312.82C293.831 308.969 300.157 305.276 306.523 301.739C312.883 298.2 319.274 294.823 325.698 291.61C325.868 291.536 326.007 291.404 326.091 291.237C326.174 291.071 326.197 290.88 326.155 290.699C326.148 290.675 326.137 290.653 326.123 290.632C326.034 290.464 325.833 290.394 325.541 290.538C324.753 290.934 323.961 291.33 323.173 291.735C316.732 295.004 310.318 298.435 303.932 302.03C297.55 305.623 291.205 309.374 284.896 313.284C284.763 313.365 284.63 313.451 284.498 313.532C283.896 313.904 283.299 314.277 282.697 314.65Z" fill="white"/>
<path d="M258.259 314.787L259.431 314.781C259.695 314.41 259.955 314.039 260.219 313.668C266.43 304.934 272.64 296.199 278.848 287.465C289.015 273.166 299.178 258.866 309.339 244.567C309.399 244.49 309.444 244.402 309.471 244.308C309.557 243.992 309.326 243.806 309.028 243.839C308.903 243.857 308.783 243.901 308.676 243.969C308.569 244.038 308.478 244.128 308.409 244.234C302.709 252.253 297.011 260.269 291.313 268.282C281.2 282.51 271.087 296.736 260.977 310.961C260.333 311.864 259.69 312.771 259.047 313.674C258.783 314.045 258.519 314.416 258.259 314.787Z" fill="white"/>
<path d="M232.148 307.961C232.208 309.942 232.338 311.891 232.509 313.823C232.542 314.192 232.575 314.561 232.609 314.931L233.838 314.924C233.801 314.555 233.763 314.185 233.73 313.816C233.47 311.026 233.286 308.204 233.261 305.306C233.228 297.271 234.009 289.253 235.591 281.376C237.273 272.895 239.688 264.576 242.809 256.515C246.084 248.013 250.034 239.787 254.618 231.918C254.705 231.789 254.743 231.635 254.727 231.481C254.676 231.129 254.21 231.025 253.861 231.361C253.792 231.427 253.732 231.502 253.684 231.584C253.117 232.563 252.56 233.544 252.014 234.528C247.598 242.441 243.818 250.695 240.711 259.211C237.751 267.299 235.499 275.63 233.982 284.11C232.56 291.977 231.946 299.969 232.148 307.961Z" fill="white"/>
<path d="M112.345 191.115C112.141 190.945 111.992 190.718 111.917 190.463C111.841 190.208 111.843 189.936 111.921 189.682C111.999 189.427 112.151 189.202 112.357 189.034C112.563 188.866 112.813 188.763 113.077 188.738C116.009 188.454 118.968 188.758 121.781 189.633L150.44 198.509C150.811 198.623 151.156 198.81 151.454 199.059C151.753 199.307 152 199.613 152.182 199.957C152.363 200.301 152.475 200.678 152.511 201.066C152.547 201.453 152.507 201.844 152.392 202.216C152.278 202.588 152.091 202.934 151.843 203.234C151.596 203.533 151.291 203.781 150.948 203.963C150.605 204.145 150.229 204.257 149.842 204.293C149.456 204.33 149.066 204.289 148.695 204.174L120.037 195.298C117.221 194.429 114.607 193.007 112.345 191.115Z" fill="#3F3D56"/>
<path d="M229.821 227.986C229.042 227.659 228.345 227.164 227.778 226.537C227.21 225.91 226.787 225.166 226.538 224.357C226.288 223.549 226.219 222.695 226.334 221.856C226.449 221.017 226.746 220.214 227.204 219.503L222.292 193.741L234.812 192.762L235.567 217.961C236.708 218.812 237.497 220.053 237.786 221.449C238.074 222.844 237.843 224.298 237.134 225.534C236.426 226.769 235.29 227.701 233.942 228.154C232.594 228.606 231.128 228.546 229.821 227.986Z" fill="#FFB8B8"/>
<path d="M221.519 214.69L208.767 155.133C208.244 152.687 208.71 150.133 210.065 148.032C211.419 145.93 213.551 144.455 215.99 143.93C218.429 143.405 220.976 143.873 223.071 145.231C225.166 146.59 226.638 148.727 227.161 151.173L239.913 210.729C240.047 211.358 239.927 212.015 239.579 212.555C239.23 213.095 238.683 213.475 238.056 213.61L224.392 216.553C224.081 216.62 223.76 216.625 223.448 216.567C223.135 216.51 222.837 216.391 222.57 216.218C222.304 216.045 222.073 215.821 221.893 215.559C221.713 215.297 221.585 215.002 221.519 214.69Z" fill="#FFD62E"/>
<path d="M200.588 308.377H193.999L190.863 282.886L200.59 282.886L200.588 308.377Z" fill="#FFB8B8"/>
<path d="M189.292 306.488H202.001V314.513H181.29C181.29 313.459 181.497 312.416 181.899 311.442C182.301 310.469 182.891 309.584 183.634 308.839C184.377 308.094 185.259 307.502 186.23 307.099C187.201 306.696 188.241 306.488 189.292 306.488Z" fill="#2F2E41"/>
<path d="M222.627 307.838H216.038L212.902 282.347L222.629 282.347L222.627 307.838Z" fill="#FFB8B8"/>
<path d="M211.33 305.949H224.039V313.974H203.328C203.328 312.92 203.535 311.877 203.937 310.903C204.339 309.93 204.929 309.045 205.672 308.3C206.415 307.555 207.297 306.963 208.268 306.56C209.239 306.157 210.279 305.949 211.33 305.949Z" fill="#2F2E41"/>
<path d="M192.693 303.622C192.446 303.419 192.242 303.168 192.093 302.884C191.944 302.601 191.852 302.29 191.824 301.971L184.163 217.458C184.134 217.13 184.171 216.799 184.273 216.486C184.375 216.173 184.539 215.884 184.756 215.636C184.973 215.389 185.238 215.188 185.534 215.047C185.831 214.906 186.153 214.826 186.482 214.814L224.904 213.369C225.236 213.356 225.568 213.413 225.878 213.535C226.187 213.657 226.469 213.841 226.704 214.077C226.939 214.313 227.124 214.595 227.245 214.906C227.367 215.216 227.424 215.549 227.412 215.882L224.34 300.071C224.318 300.66 224.082 301.221 223.678 301.649C223.274 302.077 222.728 302.343 222.142 302.398L214.395 303.104C214.074 303.133 213.75 303.098 213.442 303C213.135 302.902 212.85 302.743 212.605 302.533C212.36 302.323 212.159 302.066 212.014 301.777C211.869 301.487 211.784 301.172 211.762 300.849L208.207 247.365C208.205 247.263 208.182 247.161 208.14 247.068C208.098 246.974 208.038 246.889 207.963 246.819C207.888 246.749 207.8 246.694 207.704 246.659C207.608 246.623 207.505 246.607 207.403 246.611H207.4C207.297 246.607 207.194 246.624 207.098 246.66C207.002 246.696 206.914 246.751 206.839 246.822C206.764 246.893 206.704 246.978 206.663 247.073C206.621 247.167 206.599 247.269 206.597 247.372L203.416 301.216C203.384 301.793 203.147 302.339 202.748 302.755C202.349 303.172 201.815 303.431 201.242 303.486L194.474 304.165C194.156 304.198 193.835 304.167 193.529 304.074C193.223 303.98 192.939 303.827 192.693 303.622H192.693Z" fill="#2F2E41"/>
<path d="M207.473 131.274C214.764 131.274 220.675 125.346 220.675 118.034C220.675 110.722 214.764 104.794 207.473 104.794C200.181 104.794 194.271 110.722 194.271 118.034C194.271 125.346 200.181 131.274 207.473 131.274Z" fill="#FFB8B8"/>
<path d="M182.049 218.03C181.814 217.762 181.641 217.445 181.543 217.103C181.446 216.76 181.425 216.399 181.483 216.047C183.921 201.19 182.547 179.351 180.965 163.647C180.552 159.481 181.241 155.279 182.963 151.465C184.684 147.652 187.377 144.36 190.77 141.922L197.665 135.995C198.123 135.606 198.708 135.398 199.308 135.412L216.437 135.902C217.055 135.919 217.643 136.174 218.079 136.613L220.725 142.491L220.753 142.511C223.907 144.836 226.437 147.908 228.118 151.454C229.798 154.999 230.576 158.907 230.383 162.828L227.861 215.083C227.829 215.69 227.571 216.264 227.139 216.691C226.707 217.118 226.131 217.367 225.525 217.39L183.948 218.855C183.922 218.856 183.895 218.856 183.868 218.856C183.524 218.857 183.183 218.783 182.869 218.641C182.556 218.498 182.276 218.29 182.049 218.03Z" fill="#FFD62E"/>
<path d="M132.179 196.225C132.159 195.378 132.323 194.538 132.662 193.762C133 192.986 133.504 192.295 134.137 191.735C134.771 191.176 135.519 190.763 136.33 190.525C137.14 190.287 137.992 190.23 138.827 190.358L160.255 175.319L166.27 186.374L143.652 197.38C143.345 198.771 142.539 200.001 141.387 200.837C140.236 201.672 138.819 202.055 137.404 201.913C135.99 201.77 134.677 201.113 133.714 200.064C132.751 199.016 132.205 197.65 132.179 196.225L132.179 196.225Z" fill="#FFB8B8"/>
<path d="M150.213 198.839C149.899 198.791 149.597 198.682 149.325 198.517C149.054 198.351 148.817 198.134 148.63 197.876L140.36 186.578C139.981 186.059 139.823 185.41 139.921 184.775C140.018 184.139 140.362 183.568 140.879 183.187L189.845 147.143C191.856 145.663 194.371 145.044 196.837 145.424C198.058 145.611 199.23 146.039 200.287 146.681C201.343 147.323 202.263 148.168 202.994 149.166C203.725 150.165 204.253 151.298 204.547 152.501C204.841 153.705 204.896 154.954 204.709 156.179C204.522 157.403 204.096 158.579 203.455 159.638C202.815 160.698 201.973 161.62 200.977 162.353L152.011 198.397C151.598 198.702 151.098 198.867 150.585 198.867C150.461 198.867 150.336 198.858 150.213 198.839Z" fill="#FFD62E"/>
<path d="M208.148 129.821C209.899 127.668 209.708 124.389 208.302 121.994C206.897 119.6 204.512 117.952 202.057 116.664C199.603 115.376 196.995 114.363 194.686 112.83C192.376 111.296 192.476 104.804 191.861 102.096L193.328 102.586C192.764 101.862 192.584 99.725 192.02 99.0017C193.677 99.1659 194.952 100.744 196.61 100.908L195.653 98.3336C201.337 97.9822 204.871 101.943 210.555 101.592C213.371 101.418 216.43 101.308 218.745 102.925C220.757 104.331 221.775 106.763 222.443 109.129C223.878 114.209 224.101 119.899 221.623 124.557C219.145 129.215 213.433 132.354 208.443 130.672L208.148 129.821Z" fill="#2F2E41"/>
<path d="M135.664 314.812H340.462C340.605 314.812 340.741 314.755 340.842 314.654C340.943 314.553 341 314.415 341 314.272C341 314.13 340.943 313.992 340.842 313.891C340.741 313.79 340.605 313.733 340.462 313.733H135.664C135.522 313.733 135.385 313.79 135.284 313.891C135.184 313.992 135.127 314.13 135.127 314.272C135.127 314.415 135.184 314.553 135.284 314.654C135.385 314.755 135.522 314.812 135.664 314.812Z" fill="#3F3D56"/>
</g>
<defs>
<clipPath id="clip0">
<rect width="341" height="315" fill="white"/>
</clipPath>
</defs>
</svg>
