<svg width="315" height="254" viewBox="0 0 315 254" fill="none" xmlns="http://www.w3.org/2000/svg">
<path d="M243.434 72.2637C243.434 72.2637 244.406 85.4026 244.406 85.8892C244.406 86.3758 237.599 119.953 237.599 119.953C237.599 119.953 227.875 138.445 237.599 137.958C247.324 137.472 244.406 120.44 244.406 120.44L254.617 92.2154L250.241 72.2637L243.434 72.2637Z" fill="#A0616A"/>
<path d="M54.9336 241.489V106.148H247.647V241.489H54.9336Z" fill="#F2F2F2" stroke="black" stroke-width="0.5"/>
<path d="M119.462 157.729H70.9482V242.488H119.462V157.729Z" fill="#3F3D56"/>
<path d="M92.9901 162.813H79.9219V175.006H92.9901V162.813Z" fill="#F2F2F2"/>
<path d="M110.488 162.813H97.4199V175.006H110.488V162.813Z" fill="#F2F2F2"/>
<path d="M92.9901 179.439H79.9219V192.075H92.9901V179.439Z" fill="#F2F2F2"/>
<path d="M110.488 179.439H97.4199V192.075H110.488V179.439Z" fill="#F2F2F2"/>
<path d="M113.292 208.902C114.995 208.902 116.376 207.52 116.376 205.815C116.376 204.11 114.995 202.728 113.292 202.728C111.588 202.728 110.207 204.11 110.207 205.815C110.207 207.52 111.588 208.902 113.292 208.902Z" fill="#FFD62E"/>
<path d="M231.632 149.682H135.727V230.231H231.632V149.682Z" fill="#3F3D56"/>
<path d="M268.087 131.473H34.4922L50.0671 98.8822L53.5527 91.585L58.1127 82.0425L61.5983 74.7454L65.639 66.292H249.683L252.069 74.7454L254.13 82.0425L256.825 91.585L258.886 98.8822L268.087 131.473Z" fill="#3F3D56"/>
<path d="M142.457 183.081H139.092V203.85H142.457V183.081Z" fill="#FFD62E"/>
<path d="M142.457 186.168H139.092V188.694H142.457V186.168Z" fill="#F2F2F2"/>
<path d="M142.457 198.236H139.092V200.762H142.457V198.236Z" fill="#F2F2F2"/>
<path d="M152.271 183.081H144.139V203.85H152.271V183.081Z" fill="#FFD62E"/>
<path d="M152.271 186.168H144.139V188.694H152.271V186.168Z" fill="#F2F2F2"/>
<path d="M152.271 198.236H144.139V200.762H152.271V198.236Z" fill="#F2F2F2"/>
<path d="M157.6 183.081H154.234V203.85H157.6V183.081Z" fill="#FFD62E"/>
<path d="M157.6 186.168H154.234V188.694H157.6V186.168Z" fill="#F2F2F2"/>
<path d="M157.6 198.236H154.234V200.762H157.6V198.236Z" fill="#F2F2F2"/>
<path d="M162.647 183.081H159.282V203.85H162.647V183.081Z" fill="#FFD62E"/>
<path d="M162.647 186.168H159.282V188.694H162.647V186.168Z" fill="#F2F2F2"/>
<path d="M162.647 198.236H159.282V200.762H162.647V198.236Z" fill="#F2F2F2"/>
<path d="M165.89 183.154L162.741 184.342L170.061 203.776L173.21 202.588L165.89 183.154Z" fill="#FFD62E"/>
<path d="M166.978 186.043L163.829 187.231L164.719 189.595L167.868 188.407L166.978 186.043Z" fill="#F2F2F2"/>
<path d="M171.231 197.335L168.082 198.523L168.972 200.887L172.121 199.699L171.231 197.335Z" fill="#F2F2F2"/>
<path d="M228.547 183.081H220.415V203.85H228.547V183.081Z" fill="#FFD62E"/>
<path d="M228.547 186.168H220.415V188.694H228.547V186.168Z" fill="#F2F2F2"/>
<path d="M228.547 198.236H220.415V200.762H228.547V198.236Z" fill="#F2F2F2"/>
<path d="M218.452 183.081H215.087V203.85H218.452V183.081Z" fill="#FFD62E"/>
<path d="M218.452 186.168H215.087V188.694H218.452V186.168Z" fill="#F2F2F2"/>
<path d="M218.452 198.236H215.087V200.762H218.452V198.236Z" fill="#F2F2F2"/>
<path d="M213.404 183.081H210.039V203.85H213.404V183.081Z" fill="#FFD62E"/>
<path d="M213.404 186.168H210.039V188.694H213.404V186.168Z" fill="#F2F2F2"/>
<path d="M213.404 198.236H210.039V200.762H213.404V198.236Z" fill="#F2F2F2"/>
<path d="M206.796 183.154L199.477 202.588L202.625 203.776L209.945 184.342L206.796 183.154Z" fill="#FFD62E"/>
<path d="M205.709 186.043L204.818 188.406L207.967 189.594L208.857 187.231L205.709 186.043Z" fill="#F2F2F2"/>
<path d="M201.456 197.336L200.565 199.699L203.714 200.887L204.604 198.524L201.456 197.336Z" fill="#F2F2F2"/>
<path d="M231.632 203.85H135.727V205.814H231.632V203.85Z" fill="#F2F2F2"/>
<path d="M195.177 183.081H177.51V203.85H195.177V183.081Z" fill="#FFD62E"/>
<path d="M190.83 187.571H181.856V191.501H190.83V187.571Z" fill="#F2F2F2"/>
<path d="M184.52 149.682H182.838V167.644H184.52V149.682Z" fill="#F2F2F2"/>
<path d="M183.679 170.451C185.228 170.451 186.484 169.195 186.484 167.645C186.484 166.094 185.228 164.838 183.679 164.838C182.131 164.838 180.875 166.094 180.875 167.645C180.875 169.195 182.131 170.451 183.679 170.451Z" fill="#F2F2F2"/>
<path d="M254.131 82.0423H58.1133L61.5989 74.7451H252.07L254.131 82.0423Z" fill="#FFD62E"/>
<path d="M258.887 98.8821H50.0674L53.553 91.585H256.826L258.887 98.8821Z" fill="#FFD62E"/>
<path d="M37.4109 182.11C58.0724 182.11 74.8219 165.347 74.8219 144.668C74.8219 123.989 58.0724 107.226 37.4109 107.226C16.7494 107.226 0 123.989 0 144.668C0 165.347 16.7494 182.11 37.4109 182.11Z" fill="#FFD62E"/>
<path d="M35.8693 163.67V158.983C33.5022 158.937 31.0534 158.102 29.625 156.942L30.6044 153.833C32.3019 155.106 34.3604 155.805 36.4815 155.828C39.3792 155.828 41.3382 153.925 41.3382 151.28C41.3382 148.728 39.7465 147.151 36.7264 145.758C32.5634 143.902 29.9923 141.768 29.9923 137.731C29.9923 133.879 32.4002 130.956 36.1551 130.26V125.573H38.6854V130.074C40.5722 130.1 42.4126 130.663 43.9911 131.698L42.9706 134.761C41.4568 133.724 39.6629 133.173 37.8283 133.183C34.6858 133.183 33.5022 135.318 33.5022 137.174C33.5022 139.587 35.0122 140.793 38.563 142.464C42.7666 144.413 44.889 146.826 44.889 150.956C44.889 154.621 42.6442 158.055 38.4405 158.844V163.67H35.8693Z" fill="#F2F2F2"/>
</svg>
