<svg width="361" height="254" viewBox="0 0 361 254" fill="none" xmlns="http://www.w3.org/2000/svg">
<g clip-path="url(#clip0)">
<path d="M328.936 88.8716C328.542 89.1953 328.147 89.5049 327.743 89.8098H228.052C227.31 89.5049 226.57 89.1921 225.834 88.8716C215.31 84.2994 205.514 78.2112 196.76 70.8013C190.947 65.8849 185.599 60.8091 181.722 56.0523C176.313 49.4143 171.332 42.1806 169.015 33.9382C166.703 25.6959 167.394 16.2479 172.558 9.41293C174.158 7.31038 176.124 5.51305 178.362 4.10724C178.733 3.87268 179.109 3.64751 179.494 3.43641C185.688 -0.0350401 193.503 -0.879451 200.477 0.917258C210.463 3.4927 218.762 10.6842 224.683 19.1189C230.604 27.5489 234.448 37.2314 238.235 46.8061C242.08 29.7162 253.72 14.409 269.443 6.62638C285.163 -1.15623 304.693 -1.06241 320.078 7.36759C324.919 10.0361 329.292 13.4744 333.025 17.5474C333.396 17.9461 333.758 18.3543 334.115 18.7671C341.62 27.441 346.314 38.5497 346.7 50.0054C347.193 64.7638 340.342 79.5878 328.936 88.8716Z" fill="#F2F2F2"/>
<path d="M232.037 89.8096H230.627C230.609 89.4953 230.585 89.1857 230.557 88.8714C230.064 82.7352 229.033 76.654 227.474 70.6979C223.899 57.1 217.791 44.2955 209.471 32.9529C201.175 21.574 190.716 11.9366 178.691 4.59022C178.603 4.53991 178.528 4.47024 178.471 4.38652C178.414 4.3028 178.377 4.20722 178.362 4.10703C178.339 3.97603 178.354 3.8412 178.405 3.71825C178.455 3.5953 178.54 3.48931 178.649 3.41261C178.758 3.33591 178.886 3.29167 179.019 3.28505C179.152 3.27843 179.285 3.3097 179.401 3.37521C179.433 3.39388 179.464 3.41423 179.494 3.43619C186.307 7.58155 192.632 12.4786 198.348 18.035C208.573 27.9926 216.818 39.792 222.648 52.8105C227.791 64.2123 230.941 76.4086 231.962 88.8714C231.99 89.1857 232.014 89.5 232.037 89.8096Z" fill="white"/>
<path d="M334.115 18.7669C334.105 18.7722 334.094 18.7754 334.082 18.7763C333.053 18.9639 332.019 19.161 330.995 19.3721C322.585 21.0961 314.353 23.5914 306.403 26.8263C298.474 30.0566 290.848 33.9812 283.612 38.5542C276.367 43.1248 269.535 48.3172 263.194 54.0725C256.852 59.8195 251.035 66.1179 245.811 72.8934C241.906 77.9699 238.356 83.3085 235.186 88.8714C235.007 89.181 234.833 89.4953 234.66 89.8097H233.048C233.217 89.4953 233.391 89.181 233.569 88.8714C237.405 82.0551 241.803 75.5698 246.718 69.4829C252.153 62.7464 258.178 56.506 264.721 50.8356C271.222 45.1971 278.2 40.1306 285.576 35.6926C292.983 31.2366 300.77 27.4439 308.847 24.3588C316.685 21.3676 324.777 19.0878 333.025 17.5472C333.255 17.505 333.481 17.4628 333.711 17.4205C334.59 17.261 334.966 18.5839 334.115 18.7669Z" fill="white"/>
<path d="M77.8949 92.5984C80.4019 87.8741 80.8157 81.721 77.6985 77.3737C75.8429 74.786 72.9456 73.0873 69.9056 72.1292C66.8656 71.171 63.6586 70.8894 60.4792 70.6566C57.3319 70.4261 54.1287 70.2416 51.0542 70.9522C47.9798 71.6628 45.0019 73.3987 43.5042 76.1716C40.9741 80.856 43.2789 86.8625 41.4206 91.8505C39.7152 96.428 34.8616 99.1042 30.0904 100.184C25.3192 101.264 20.3393 101.149 15.5658 102.219C10.7922 103.288 5.93057 105.94 4.19498 110.506C2.93992 113.808 3.56349 117.611 5.21728 120.733C6.87107 123.855 9.46112 126.383 12.2104 128.605C16.3118 131.921 21.1102 134.761 26.3801 135.049C31.933 135.351 37.3624 132.713 41.359 128.853C45.3556 124.992 48.0765 120.004 50.2504 114.894C51.6295 111.653 52.9324 108.164 55.6961 105.975C57.7268 104.367 60.3097 103.662 62.8146 102.995L65.651 102.241C68.2212 101.569 70.6266 100.38 72.7193 98.7462C74.8119 97.1123 76.5476 95.0682 77.8194 92.7397C77.8447 92.6928 77.8699 92.6457 77.8949 92.5984Z" fill="#2F2E41"/>
<path d="M55.5264 248.005H49.7655L47.0244 225.821H55.5278L55.5264 248.005Z" fill="#FFB8B8"/>
<path d="M45.6501 246.361H56.761V253.345H38.6543C38.6543 252.428 38.8352 251.52 39.1868 250.672C39.5384 249.825 40.0537 249.055 40.7033 248.407C41.3529 247.758 42.1241 247.244 42.9729 246.893C43.8217 246.542 44.7314 246.361 45.6501 246.361Z" fill="#2F2E41"/>
<path d="M103.459 248.005H97.6981L94.957 225.821H103.46L103.459 248.005Z" fill="#FFB8B8"/>
<path d="M93.5827 246.361H104.694V253.345H86.5869C86.5869 252.428 86.7679 251.52 87.1194 250.672C87.471 249.825 87.9863 249.055 88.6359 248.407C89.2855 247.758 90.0567 247.244 90.9055 246.893C91.7543 246.542 92.664 246.361 93.5827 246.361Z" fill="#2F2E41"/>
<path d="M66.601 230.373C66.5206 230.373 66.4403 230.369 66.3604 230.36L42.9216 227.853C42.6103 227.82 42.3097 227.721 42.0398 227.562C41.7698 227.404 41.5368 227.19 41.3561 226.935C41.1755 226.68 41.0514 226.389 40.9921 226.082C40.9328 225.775 40.9396 225.459 41.0122 225.155L61.7654 146.358C61.8626 145.957 62.0701 145.591 62.3644 145.302C62.6588 145.012 63.0284 144.81 63.4314 144.719L82.6835 139.362C83.0695 139.277 83.4712 139.297 83.847 139.42C84.2227 139.542 84.559 139.762 84.821 140.057C97.1991 153.995 106.527 184.891 113.593 223.834C113.647 224.128 113.639 224.43 113.572 224.721C113.505 225.012 113.379 225.286 113.202 225.527C113.026 225.768 112.801 225.971 112.544 226.122C112.286 226.274 112 226.372 111.703 226.41L92.4984 228.857C91.9537 228.928 91.4022 228.793 90.9525 228.478C90.5027 228.163 90.1874 227.691 90.0685 227.156L80.7246 185.57C80.6387 185.187 80.4236 184.845 80.1155 184.602C79.8073 184.359 79.4248 184.228 79.0319 184.233C78.639 184.237 78.2595 184.376 77.9571 184.627C77.6547 184.877 77.4476 185.224 77.3705 185.608L68.7566 228.603C68.6591 229.102 68.3906 229.552 67.9973 229.875C67.6039 230.198 67.1103 230.374 66.601 230.373Z" fill="#2F2E41"/>
<path d="M63.0361 103.419C69.4105 103.419 74.578 98.2603 74.578 91.8969C74.578 85.5336 69.4105 80.375 63.0361 80.375C56.6616 80.375 51.4941 85.5336 51.4941 91.8969C51.4941 98.2603 56.6616 103.419 63.0361 103.419Z" fill="#FFB8B8"/>
<path d="M62.7138 146.579C62.2286 146.579 61.7571 146.418 61.3728 146.123C60.9885 145.827 60.713 145.413 60.5891 144.944L53.6455 118.904C53.1443 117.033 53.3519 115.043 54.2284 113.315C55.105 111.587 56.589 110.242 58.3965 109.538C63.9858 107.36 69.311 106.552 74.2239 107.136C78.5904 107.655 83.977 133.462 83.6206 134.012L85.3438 139.172C85.4415 139.465 85.4765 139.775 85.4465 140.082C85.4165 140.389 85.3222 140.686 85.1696 140.955C85.0171 141.223 84.8098 141.456 84.5611 141.639C84.3125 141.822 84.028 141.951 83.7262 142.018L63.1927 146.527C63.0355 146.562 62.8749 146.579 62.7138 146.579Z" fill="#CCCCCC"/>
<path d="M68.9364 173.209C69.0353 172.697 69.0205 172.169 68.8929 171.663C68.7653 171.157 68.5281 170.684 68.198 170.28C67.8678 169.875 67.4529 169.547 66.9822 169.32C66.5116 169.093 65.9967 168.971 65.4739 168.964L61.4735 156.922L57.3848 162.099L61.8105 172.741C61.8566 173.619 62.2236 174.449 62.8419 175.074C63.4601 175.7 64.2868 176.077 65.1651 176.135C66.0435 176.193 66.9126 175.927 67.6076 175.387C68.3027 174.848 68.7755 174.073 68.9364 173.209Z" fill="#FFB8B8"/>
<path d="M120.369 144.269C120.129 143.805 119.791 143.399 119.377 143.08C118.963 142.761 118.485 142.536 117.975 142.421C117.464 142.307 116.935 142.305 116.425 142.417C115.914 142.529 115.434 142.751 115.018 143.067L104.419 136.067L104.409 142.66L114.476 148.297C115.056 148.958 115.858 149.385 116.731 149.495C117.605 149.605 118.488 149.392 119.214 148.896C119.941 148.399 120.459 147.654 120.672 146.801C120.885 145.949 120.777 145.048 120.369 144.269H120.369Z" fill="#FFB8B8"/>
<path d="M60.5496 167.646C60.086 167.646 59.6342 167.5 59.2584 167.229C58.8827 166.958 58.6021 166.576 58.4565 166.136L49.0783 146.332C48.6937 145.171 48.4978 143.957 48.498 142.734L51.3176 116.993C51.3175 115.552 51.8684 114.165 52.8579 113.116C53.8473 112.066 55.2008 111.433 56.6418 111.346C58.0829 111.259 59.5029 111.724 60.6121 112.647C61.7212 113.57 62.4358 114.88 62.61 116.311L58.2961 145.692L65.18 163.725C65.2889 164.204 65.2333 164.707 65.0222 165.151C64.811 165.596 64.4564 165.956 64.0154 166.176L61.5351 167.414C61.2291 167.567 60.8917 167.646 60.5496 167.646Z" fill="#CCCCCC"/>
<path d="M110.636 146.869C110.291 146.869 109.95 146.788 109.642 146.632L90.9919 137.228C89.8985 136.677 88.9007 135.955 88.0365 135.088L69.8329 116.858C68.8138 115.837 68.2233 114.466 68.182 113.026C68.1407 111.585 68.6518 110.183 69.6108 109.106C70.5699 108.029 71.9046 107.358 73.3425 107.229C74.7805 107.101 76.2132 107.526 77.3482 108.416L97.0676 130.278L112.699 140.186C113.115 140.449 113.431 140.844 113.596 141.308C113.761 141.771 113.765 142.277 113.607 142.743L112.726 145.368C112.579 145.805 112.298 146.185 111.923 146.454C111.548 146.724 111.098 146.868 110.636 146.869L110.636 146.869Z" fill="#CCCCCC"/>
<path d="M49.9072 85.9397C51.8678 88.5001 54.6861 90.2704 57.8467 90.927C61.0504 91.5879 64.3846 91.111 67.2735 89.5787C69.5981 88.3249 71.4582 86.4431 73.2802 84.5905C74.0405 83.8173 74.8504 82.9256 74.8121 81.8708C74.7529 80.2365 72.7848 79.3431 71.0956 78.9867C65.5511 77.832 59.7819 78.4797 54.6328 80.8349C52.3395 81.8983 49.9502 83.8221 50.2945 86.2136" fill="#2F2E41"/>
<path d="M353.012 88.8711H126.506C124.389 88.8741 122.358 89.7153 120.861 91.2102C119.363 92.7052 118.521 94.7319 118.518 96.846V184.101C118.521 186.216 119.363 188.242 120.861 189.737C122.358 191.232 124.389 192.073 126.506 192.076H353.012C355.13 192.073 357.16 191.232 358.657 189.737C360.155 188.242 360.998 186.216 361.001 184.101V96.846C360.998 94.7319 360.155 92.7052 358.657 91.2102C357.16 89.7153 355.13 88.8741 353.012 88.8711ZM360.061 184.101C360.058 185.967 359.315 187.755 357.994 189.075C356.672 190.394 354.881 191.136 353.012 191.138H126.506C124.638 191.136 122.846 190.394 121.525 189.075C120.203 187.755 119.46 185.967 119.457 184.101V96.846C119.46 94.9805 120.203 93.192 121.525 91.8728C122.846 90.5537 124.638 89.8116 126.506 89.8093H353.012C354.881 89.8116 356.672 90.5537 357.994 91.8728C359.315 93.192 360.058 94.9805 360.061 96.846V184.101Z" fill="#3F3D56"/>
<path d="M167.631 167.683C162.24 167.683 156.971 166.087 152.488 163.097C148.006 160.108 144.513 155.858 142.45 150.887C140.387 145.915 139.847 140.444 140.899 135.166C141.95 129.888 144.546 125.04 148.358 121.235C152.17 117.43 157.026 114.838 162.314 113.788C167.601 112.739 173.081 113.277 178.061 115.337C183.042 117.396 187.298 120.884 190.293 125.358C193.288 129.832 194.887 135.093 194.887 140.474C194.879 147.688 192.004 154.604 186.895 159.705C181.785 164.806 174.857 167.675 167.631 167.683ZM167.631 114.204C162.426 114.204 157.338 115.745 153.01 118.631C148.683 121.518 145.31 125.621 143.318 130.421C141.326 135.221 140.805 140.503 141.821 145.599C142.836 150.695 145.342 155.376 149.023 159.05C152.703 162.724 157.392 165.226 162.497 166.24C167.602 167.254 172.893 166.733 177.702 164.745C182.51 162.757 186.62 159.39 189.512 155.069C192.403 150.749 193.947 145.67 193.947 140.474C193.939 133.509 191.164 126.832 186.23 121.907C181.297 116.982 174.608 114.212 167.631 114.204Z" fill="#3F3D56"/>
<path d="M332.798 123.117H224.245C222.727 123.118 221.269 123.705 220.176 124.755C219.083 125.806 218.439 127.238 218.38 128.751C218.372 128.828 218.369 128.904 218.371 128.981C218.373 130.536 218.992 132.026 220.093 133.125C221.195 134.224 222.687 134.843 224.245 134.845H332.798C334.356 134.845 335.85 134.227 336.952 133.128C338.053 132.028 338.672 130.536 338.672 128.981C338.672 127.426 338.053 125.934 336.952 124.835C335.85 123.735 334.356 123.117 332.798 123.117Z" fill="#FFD62E"/>
<path d="M332.798 146.104H224.245C222.727 146.104 221.269 146.691 220.176 147.742C219.083 148.792 218.439 150.224 218.38 151.738C218.372 151.814 218.369 151.891 218.371 151.967C218.373 153.522 218.992 155.012 220.093 156.111C221.195 157.211 222.687 157.829 224.245 157.831H332.798C334.356 157.831 335.85 157.214 336.952 156.114C338.053 155.014 338.672 153.523 338.672 151.967C338.672 150.412 338.053 148.921 336.952 147.821C335.85 146.721 334.356 146.104 332.798 146.104Z" fill="#FFD62E"/>
<path d="M164.591 152.362C163.83 152.364 163.09 152.118 162.481 151.663L162.444 151.635L154.5 145.563C154.132 145.282 153.823 144.931 153.591 144.53C153.359 144.13 153.209 143.687 153.148 143.229C153.087 142.77 153.117 142.304 153.237 141.857C153.356 141.41 153.563 140.991 153.845 140.624C154.127 140.257 154.478 139.948 154.88 139.717C155.281 139.485 155.724 139.335 156.183 139.274C156.643 139.213 157.11 139.243 157.557 139.363C158.005 139.482 158.425 139.689 158.793 139.97L163.938 143.908L176.097 128.079C176.379 127.711 176.731 127.403 177.132 127.172C177.534 126.94 177.977 126.79 178.436 126.73C178.896 126.669 179.362 126.699 179.81 126.819C180.258 126.939 180.678 127.145 181.045 127.427L180.97 127.529L181.047 127.428C181.789 127.997 182.275 128.837 182.397 129.763C182.52 130.689 182.269 131.626 181.701 132.368L167.398 150.987C167.068 151.416 166.642 151.764 166.155 152.002C165.668 152.24 165.133 152.364 164.591 152.362Z" fill="#FFD62E"/>
<path d="M164.513 254H-14.5301C-14.6547 254 -14.7742 253.95 -14.8624 253.862C-14.9505 253.774 -15 253.655 -15 253.531C-15 253.406 -14.9505 253.287 -14.8624 253.199C-14.7742 253.111 -14.6547 253.062 -14.5301 253.062H164.513C164.637 253.062 164.757 253.111 164.845 253.199C164.933 253.287 164.983 253.406 164.983 253.531C164.983 253.655 164.933 253.774 164.845 253.862C164.757 253.95 164.637 254 164.513 254Z" fill="#3F3D56"/>
<path d="M306.082 67.7375C296.265 66.3895 286.296 66.6139 276.55 68.4022C266.832 70.1756 257.45 73.45 248.743 78.1074C243.849 80.7324 239.205 83.7957 234.866 87.2595C234.158 87.8247 235.161 88.8147 235.863 88.2547C243.476 82.2096 252.009 77.4209 261.139 74.0707C270.197 70.7264 279.718 68.7983 289.365 68.3545C294.824 68.1042 300.294 68.3519 305.708 69.0945C305.888 69.1376 306.077 69.1108 306.238 69.0195C306.399 68.9283 306.52 68.7794 306.575 68.6031C306.623 68.4231 306.599 68.2314 306.507 68.0693C306.415 67.9073 306.262 67.788 306.083 67.7375H306.082Z" fill="white"/>
</g>
<defs>
<clipPath id="clip0">
<rect width="376" height="254" fill="white" transform="translate(-15)"/>
</clipPath>
</defs>
</svg>
